
<svg width="16px" height="14px" viewBox="0 0 16 14" version="1.1" xmlns="http://www.w3.org/2000/svg" xmlns:xlink="http://www.w3.org/1999/xlink">
    <defs>
        <path d="M0.666666667,5.66666667 L3.33333333,5.66666667 L3.33333333,13.6666667 L0.666666667,13.6666667 L0.666666667,5.66666667 Z M6,13.6666667 L12,13.6666667 C12.5533333,13.6666667 13.0266667,13.3333333 13.2266667,12.8533333 L15.24,8.15333333 C15.3,8 15.3333333,7.84 15.3333333,7.66666667 L15.3333333,6.33333333 C15.3333333,5.6 14.7333333,5 14,5 L9.79333333,5 L10.4266667,1.95333333 L10.4466667,1.74 C10.4466667,1.46666667 10.3333333,1.21333333 10.1533333,1.03333333 L9.44666667,0.333333333 L5.05333333,4.72666667 C4.81333333,4.96666667 4.66666667,5.3 4.66666667,5.66666667 L4.66666667,12.3333333 C4.66666667,13.0666667 5.26666667,13.6666667 6,13.6666667 Z M6,5.66666667 L8.89333333,2.77333333 L8,6.33333333 L14,6.33333333 L14,7.66666667 L12,12.3333333 L6,12.3333333 L6,5.66666667 Z" id="path-1"></path>
    </defs>
    <g id="Page-1" stroke="none" stroke-width="1" fill="none" fill-rule="evenodd">
        <g id="01.-Dashboard" transform="translate(-783.000000, -931.000000)">
            <g id="Icon-/-Thumbs-Up-/-Outlined" transform="translate(783.000000, 931.000000)">
                <mask id="mask-2" fill="white">
                    <use xlink:href="#path-1"></use>
                </mask>
                <g id="Mask" fill-rule="nonzero"></g>
                <g id="↳-Icon-Color" mask="url(#mask-2)" fill="#000000" fill-opacity="0.54">
                    <g transform="translate(0.000000, -1.000000)" id="Rectangle">
                        <rect x="0" y="0" width="16" height="16"></rect>
                    </g>
                </g>
            </g>
        </g>
    </g>
</svg>